<svg width="49" height="48" viewBox="0 0 49 48" fill="none" xmlns="http://www.w3.org/2000/svg">
  <rect x="0.550781" y="4.57764e-05" width="48" height="48" rx="8" fill="currentColor"/>
  <path fill-rule="evenodd" clip-rule="evenodd" d="M12.5508 15.6C12.5508 14.6453 12.9301 13.7296 13.6052 13.0545C14.2803 12.3793 15.196 12 16.1508 12H32.9508C33.9056 12 34.8212 12.3793 35.4964 13.0545C36.1715 13.7296 36.5508 14.6453 36.5508 15.6V17.7H12.5508V15.6ZM12.5508 20.7V32.4C12.5508 33.3548 12.9301 34.2705 13.6052 34.9456C14.2803 35.6208 15.196 36 16.1508 36H19.4508V20.7H12.5508ZM22.4508 36H32.9508C33.9056 36 34.8212 35.6208 35.4964 34.9456C36.1715 34.2705 36.5508 33.3548 36.5508 32.4V29.7H22.4508V36ZM36.5508 26.7V20.7H22.4508V26.7H36.5508Z" fill="currentColor"/>
</svg> 