<svg width="49" height="48" viewBox="0 0 49 48" fill="none" xmlns="http://www.w3.org/2000/svg">
  <rect x="0.550781" y="4.57764e-05" width="48" height="48" rx="8" fill="currentColor"/>
  <path fill-rule="evenodd" clip-rule="evenodd" d="M16.5619 12C15.6071 12 14.6915 12.3793 14.0163 13.0544C13.3412 13.7295 12.9619 14.6452 12.9619 15.6V32.4C12.9619 33.3548 13.3412 34.2705 14.0163 34.9456C14.6915 35.6207 15.6071 36 16.5619 36H33.3619C34.3167 36 35.2324 35.6207 35.9075 34.9456C36.5826 34.2705 36.9619 33.3548 36.9619 32.4V15.6C36.9619 14.6452 36.5826 13.7295 35.9075 13.0544C35.2324 12.3793 34.3167 12 33.3619 12H16.5619ZM20.1619 16.8C19.5254 16.8 18.9149 17.0529 18.4649 17.5029C18.0148 17.953 17.7619 18.5635 17.7619 19.2C17.7619 19.8365 18.0148 20.447 18.4649 20.8971C18.9149 21.3471 19.5254 21.6 20.1619 21.6C20.7984 21.6 21.4089 21.3471 21.859 20.8971C22.3091 20.447 22.5619 19.8365 22.5619 19.2C22.5619 18.5635 22.3091 17.953 21.859 17.5029C21.4089 17.0529 20.7984 16.8 20.1619 16.8ZM29.7091 21.6C29.8684 21.593 30.0275 21.6179 30.1771 21.6731C30.3267 21.7283 30.4637 21.8128 30.5803 21.9216L33.3619 24.5184V32.4H19.5067L28.8691 21.9984C28.9756 21.8795 29.1047 21.783 29.249 21.7145C29.3932 21.6461 29.5496 21.6072 29.7091 21.6Z" fill="currentColor"/>
</svg> 