<svg width="49" height="48" viewBox="0 0 49 48" fill="none" xmlns="http://www.w3.org/2000/svg">
  <rect x="0.550781" y="4.57764e-05" width="48" height="48" rx="8" fill="currentColor"/>
  <path d="M13.506 37.8996C11.9728 37.8996 10.4194 36.7296 10.4194 35.1762C10.4194 32.4729 13.506 30.5363 17.3793 28.9829C17.3793 28.9829 17.3793 28.5996 17.7828 28.5996C19.316 25.4929 20.486 22.7896 21.2526 20.0864C20.486 18.1497 20.1027 15.8096 20.1027 14.2764C20.1027 13.1063 20.1027 12.3397 20.486 11.5529C21.6561 9.61628 24.7427 9.61628 25.9127 11.5529C26.296 12.3397 26.6793 13.1063 26.6793 14.2764C26.6793 15.8096 26.296 17.7462 25.5294 20.4697C25.9127 21.6196 26.6793 23.1729 27.4661 24.343C28.2327 25.1096 28.616 25.8964 29.4028 26.2797C32.4893 25.8964 34.426 26.2797 35.9794 26.663C38.2993 27.4296 38.6826 29.3662 38.6826 29.7697C38.6826 30.5363 38.2993 31.3029 37.916 32.0896C37.1494 32.8562 35.9794 33.2395 34.8093 33.2395C32.4893 33.2395 30.1694 32.0896 28.2327 30.153C25.9127 30.5363 23.1893 30.9196 20.8693 31.7063C18.1661 35.5797 15.8461 37.8996 13.506 37.8996ZM23.5928 25.1096C23.1893 25.8964 23.1893 26.663 22.806 27.4296C23.5928 27.4296 24.3594 27.0463 25.126 27.0463C24.3594 26.2797 23.9761 25.8964 23.5928 25.1096Z" fill="currentColor"/>
</svg> 