<svg width="49" height="48" viewBox="0 0 49 48" fill="none" xmlns="http://www.w3.org/2000/svg">
  <rect x="0.550781" y="4.57764e-05" width="48" height="48" rx="8" fill="currentColor"/>
  <path fill-rule="evenodd" clip-rule="evenodd" d="M34.7212 12.5795C35.4115 12.5795 35.9712 13.1391 35.9712 13.8295V18.9657C35.9712 19.3263 35.6789 19.6186 35.3184 19.6186C34.9578 19.6186 34.6655 19.9109 34.6655 20.2714V28.7676C34.6655 29.1282 34.9578 29.4205 35.3184 29.4205C35.6789 29.4205 35.9712 29.7127 35.9712 30.0733V31.0539C35.9712 31.7442 35.4115 32.3039 34.7212 32.3039H27.2471C26.5567 32.3039 25.9971 32.8635 25.9971 33.5539V34.1706C25.9971 34.861 25.4374 35.4206 24.7471 35.4206H24.354C23.6636 35.4206 23.104 34.861 23.104 34.1706V33.5539C23.104 32.8635 22.5444 32.3039 21.854 32.3039H14.3799C13.6895 32.3039 13.1299 31.7442 13.1299 31.0539V30.118C13.1299 29.7327 13.4422 29.4205 13.8274 29.4205C14.2126 29.4205 14.5249 29.1082 14.5249 28.7229V20.3161C14.5249 19.9309 14.2126 19.6186 13.8274 19.6186C13.4422 19.6186 13.1299 19.3063 13.1299 18.9211V13.8295C13.1299 13.1391 13.6895 12.5795 14.3799 12.5795H34.7212ZM17.3921 18.865C17.1159 18.865 16.8921 19.0889 16.8921 19.365V29.3634C16.8921 29.6396 17.1159 29.8634 17.3921 29.8634H31.7095C31.9856 29.8634 32.2095 29.6396 32.2095 29.3634V19.365C32.2095 19.0889 31.9856 18.865 31.7095 18.865H17.3921Z" fill="currentColor"/>
</svg> 