<svg width="49" height="48" viewBox="0 0 49 48" fill="none" xmlns="http://www.w3.org/2000/svg">
  <rect x="0.550781" y="4.57764e-05" width="48" height="48" rx="8" fill="currentColor"/>
  <path fill-rule="evenodd" clip-rule="evenodd" d="M34.1508 18.216H14.9508V32.4C14.9508 32.7183 15.0772 33.0235 15.3023 33.2486C15.5273 33.4736 15.8325 33.6 16.1508 33.6H32.9508C33.269 33.6 33.5743 33.4736 33.7993 33.2486C34.0244 33.0235 34.1508 32.7183 34.1508 32.4V18.216ZM12.5508 17.016V15.6C12.5508 14.6453 12.9301 13.7296 13.6052 13.0545C14.2803 12.3793 15.196 12 16.1508 12H32.9508C33.9056 12 34.8212 12.3793 35.4964 13.0545C36.1715 13.7296 36.5508 14.6453 36.5508 15.6V32.4C36.5508 33.3548 36.1715 34.2705 35.4964 34.9456C34.8212 35.6208 33.9056 36 32.9508 36H16.1508C15.196 36 14.2803 35.6208 13.6052 34.9456C12.9301 34.2705 12.5508 33.3548 12.5508 32.4V17.016ZM17.7012 21.9504C17.8127 21.8387 17.9451 21.75 18.0909 21.6895C18.2366 21.629 18.3929 21.5979 18.5508 21.5979C18.7086 21.5979 18.8649 21.629 19.0107 21.6895C19.1565 21.75 19.2889 21.8387 19.4004 21.9504L23.0004 25.5504C23.1121 25.6619 23.2008 25.7943 23.2613 25.9401C23.3218 26.0859 23.3529 26.2422 23.3529 26.4C23.3529 26.5579 23.3218 26.7142 23.2613 26.86C23.2008 27.0058 23.1121 27.1382 23.0004 27.2496L19.4004 30.8496C19.1751 31.075 18.8694 31.2016 18.5508 31.2016C18.2321 31.2016 17.9265 31.075 17.7012 30.8496C17.4759 30.6243 17.3493 30.3187 17.3493 30C17.3493 29.6814 17.4759 29.3758 17.7012 29.1504L20.454 26.4L17.7012 23.6496C17.5894 23.5382 17.5008 23.4058 17.4403 23.26C17.3798 23.1142 17.3486 22.9579 17.3486 22.8C17.3486 22.6422 17.3798 22.4859 17.4403 22.3401C17.5008 22.1943 17.5894 22.0619 17.7012 21.9504ZM25.7508 26.4C25.7508 26.0818 25.8772 25.7766 26.1023 25.5515C26.3273 25.3265 26.6325 25.2 26.9508 25.2H30.5508C30.869 25.2 31.1743 25.3265 31.3993 25.5515C31.6244 25.7766 31.7508 26.0818 31.7508 26.4C31.7508 26.7183 31.6244 27.0235 31.3993 27.2486C31.1743 27.4736 30.869 27.6 30.5508 27.6H26.9508C26.6325 27.6 26.3273 27.4736 26.1023 27.2486C25.8772 27.0235 25.7508 26.7183 25.7508 26.4Z" fill="currentColor"/>
</svg> 