<svg width="49" height="48" viewBox="0 0 49 48" fill="none" xmlns="http://www.w3.org/2000/svg">
  <rect x="0.550781" y="4.57764e-05" width="48" height="48" rx="8" fill="currentColor"/>
  <path fill-rule="evenodd" clip-rule="evenodd" d="M34.1508 20.777C34.1508 20.3365 33.9758 19.914 33.6643 19.6026L26.5482 12.4865C26.2368 12.175 25.8143 12 25.3739 12H16.1965C15.5086 12 14.9509 12.5577 14.9509 13.2457V34.7544C14.9509 35.4424 15.5086 36 16.1965 36H32.9052C33.5931 36 34.1508 35.4424 34.1508 34.7544V20.777ZM25.1368 14.232C25.0845 14.1797 24.995 14.2167 24.995 14.2907V20.9033C24.995 21.0867 25.1437 21.2354 25.3272 21.2354H31.9397C32.0137 21.2354 32.0508 21.146 31.9985 21.0937L25.1368 14.232Z" fill="currentColor"/>
</svg> 