<svg width="49" height="48" viewBox="0 0 49 48" fill="none" xmlns="http://www.w3.org/2000/svg">
  <rect x="0.550781" y="4.57764e-05" width="48" height="48" rx="8" fill="currentColor"/>
  <path fill-rule="evenodd" clip-rule="evenodd" d="M10.7817 21.2462C10.7817 25.5881 13.2938 29.3424 16.9435 31.1373C16.9146 30.0844 16.9005 29.0311 16.9013 27.9778C16.9013 25.2111 16.987 23.1953 17.088 21.7848C17.2905 18.9392 19.4899 16.7398 22.3355 16.5372C23.7461 16.4369 25.7618 16.3506 28.5285 16.3506C29.7157 16.3506 30.7658 16.3665 31.688 16.3928C29.8932 12.7431 26.1388 10.231 21.797 10.231C15.7135 10.231 10.7817 15.1628 10.7817 21.2462ZM22.4658 18.3682C23.8274 18.2715 25.7992 18.1865 28.5285 18.1865C31.2578 18.1865 33.2296 18.2715 34.5912 18.3682C36.525 18.5065 37.9998 19.9813 38.1381 21.9151C38.2348 23.2767 38.3198 25.2484 38.3198 27.9778C38.3198 30.7071 38.2348 32.6788 38.1381 34.0404C37.9998 35.9742 36.525 37.449 34.5912 37.5873C33.2296 37.684 31.2578 37.7691 28.5285 37.7691C25.7992 37.7691 23.8274 37.684 22.4658 37.5873C20.5321 37.449 19.0572 35.9742 18.9189 34.0404C18.8222 32.6788 18.7372 30.7071 18.7372 27.9778C18.7372 25.2484 18.8222 23.2767 18.9189 21.9151C19.0572 19.9813 20.5321 18.5065 22.4658 18.3682Z" fill="currentColor"/>
</svg> 