<svg width="49" height="48" viewBox="0 0 49 48" fill="none" xmlns="http://www.w3.org/2000/svg">
  <rect x="0.550781" y="4.57764e-05" width="48" height="48" rx="8" fill="currentColor"/>
  <path fill-rule="evenodd" clip-rule="evenodd" d="M20.4204 12C21.176 12.0001 21.9125 12.238 22.5255 12.6799C23.1384 13.1219 23.5968 13.7455 23.8356 14.4624L24.2148 15.6H27.2628V20.1H26.3508C25.953 20.1 25.5714 20.2581 25.2901 20.5394C25.0088 20.8207 24.8508 21.2022 24.8508 21.6C24.8508 21.9979 25.0088 22.3794 25.2901 22.6607C25.5714 22.942 25.953 23.1 26.3508 23.1H27.2628V24.9H26.3508C25.953 24.9 25.5714 25.0581 25.2901 25.3394C25.0088 25.6207 24.8508 26.0022 24.8508 26.4C24.8508 26.7979 25.0088 27.1794 25.2901 27.4607C25.5714 27.742 25.953 27.9 26.3508 27.9H27.2628V28.8C27.2628 29.1979 27.4208 29.5794 27.7021 29.8607C27.9834 30.142 28.365 30.3 28.7628 30.3C29.1606 30.3 29.5421 30.142 29.8234 29.8607C30.1047 29.5794 30.2628 29.1979 30.2628 28.8V27.9H31.1508C31.5486 27.9 31.9301 27.742 32.2114 27.4607C32.4927 27.1794 32.6508 26.7979 32.6508 26.4C32.6508 26.0022 32.4927 25.6207 32.2114 25.3394C31.9301 25.0581 31.5486 24.9 31.1508 24.9H30.2628V23.1H31.1508C31.5486 23.1 31.9301 22.942 32.2114 22.6607C32.4927 22.3794 32.6508 21.9979 32.6508 21.6C32.6508 21.2022 32.4927 20.8207 32.2114 20.5394C31.9301 20.2581 31.5486 20.1 31.1508 20.1H30.2628V15.6H32.9508C33.9056 15.6 34.8212 15.9793 35.4964 16.6545C36.1715 17.3296 36.5508 18.2453 36.5508 19.2V32.4C36.5508 33.3548 36.1715 34.2705 35.4964 34.9456C34.8212 35.6208 33.9056 36 32.9508 36H16.1508C15.196 36 14.2803 35.6208 13.6052 34.9456C12.9301 34.2705 12.5508 33.3548 12.5508 32.4V15.6C12.5508 14.6453 12.9301 13.7296 13.6052 13.0545C14.2803 12.3793 15.196 12 16.1508 12H20.4204Z" fill="currentColor"/>
</svg> 