<svg width="24" height="24" viewBox="0 0 24 24" fill="none" xmlns="http://www.w3.org/2000/svg">
<path d="M22.56 12.25C22.56 11.47 22.49 10.72 22.35 10H12V14.26H17.92C17.66 15.63 16.92 16.79 15.91 17.57V20.84H19.28C21.36 18.92 22.56 15.91 22.56 12.25Z" fill="#4285F4"/>
<path d="M12 23C15.24 23 17.95 22.01 19.28 20.84L15.91 17.57C15.03 18.18 13.82 18.58 12 18.58C8.87 18.58 6.22 16.58 5.28 13.84H1.82V17.18C3.15 20.01 7.23 23 12 23Z" fill="#34A853"/>
<path d="M5.28 13.84C5.08 13.19 4.97 12.5 4.97 11.79C4.97 11.08 5.08 10.39 5.28 9.74V6.4H1.82C1.12 7.79 0.72 9.26 0.72 10.79C0.72 12.32 1.12 13.79 1.82 15.18L5.28 13.84Z" fill="#FBBC05"/>
<path d="M12 5.02C13.62 5.02 15.06 5.56 16.21 6.63L19.15 3.69C17.45 2.08 14.97 1 12 1C7.23 1 3.15 3.99 1.82 6.82L5.28 9.16C6.22 6.42 8.87 4.42 12 4.42C13.43 4.42 14.74 4.84 15.82 5.56L18.36 3.02C16.95 2.08 15.23 1.5 13.23 1.5C12 1.5 10.77 1.77 9.68 2.29L12 5.02Z" fill="#EA4335"/>
</svg> 